<svg width="67" height="16" viewBox="0 0 67 16" fill="none" xmlns="http://www.w3.org/2000/svg">
<path d="M0.212891 13.4697C0.636719 13.3148 1.02637 13.0778 1.38184 12.7588C1.7373 12.4443 1.98112 12.041 2.11328 11.5488C2.20898 11.2025 2.26823 10.7604 2.29102 10.2227C2.31836 9.68034 2.33203 8.9694 2.33203 8.08984V7.84375V1.5957H3.87695V7.80957L3.88379 9.27246C3.88379 9.72363 3.87467 10.1201 3.85645 10.4619C3.83822 10.8037 3.80176 11.1204 3.74707 11.4121C3.64681 11.9681 3.43034 12.4512 3.09766 12.8613C2.76953 13.2715 2.389 13.5928 1.95605 13.8252C1.52311 14.0576 1.09701 14.2057 0.677734 14.2695L0.212891 13.4697ZM9.23633 4.09082C9.83789 4.09082 10.3392 4.15918 10.7402 4.2959C11.1413 4.43262 11.4535 4.68327 11.6768 5.04785C11.9001 5.40788 12.0117 5.91602 12.0117 6.57227V12.1094H11.3965C11.1914 12.1094 11.0365 12.0957 10.9316 12.0684C10.8268 12.041 10.7448 11.9772 10.6855 11.877C10.6263 11.7767 10.5967 11.6172 10.5967 11.3984V11.3438C10.3688 11.5534 10.0544 11.7334 9.65332 11.8838C9.25684 12.0342 8.84212 12.1094 8.40918 12.1094C7.94889 12.1094 7.53646 12.0205 7.17188 11.8428C6.81185 11.665 6.5293 11.4121 6.32422 11.084C6.1237 10.7513 6.02344 10.3617 6.02344 9.91504C6.02344 9.42285 6.1556 8.99674 6.41992 8.63672C6.6888 8.27669 7.0625 7.9987 7.54102 7.80273C7.96484 7.63411 8.44336 7.50879 8.97656 7.42676C9.51432 7.34017 10.0247 7.29688 10.5078 7.29688V6.51074C10.5078 6.14616 10.4486 5.87272 10.3301 5.69043C10.2161 5.50814 10.043 5.38509 9.81055 5.32129C9.57812 5.25749 9.25684 5.22559 8.84668 5.22559C8.62793 5.22559 8.375 5.25521 8.08789 5.31445C7.80534 5.3737 7.53874 5.44889 7.28809 5.54004C7.04199 5.62663 6.8597 5.71094 6.74121 5.79297L6.37207 4.80859C6.49056 4.73568 6.70475 4.64225 7.01465 4.52832C7.3291 4.41439 7.68457 4.31413 8.08105 4.22754C8.4821 4.13639 8.86719 4.09082 9.23633 4.09082ZM8.85352 10.9883C9.06771 10.9883 9.29329 10.9564 9.53027 10.8926C9.76725 10.8288 9.97461 10.7536 10.1523 10.667C10.3346 10.5758 10.4531 10.4984 10.5078 10.4346V8.25391C10.1751 8.25391 9.79915 8.28581 9.37988 8.34961C8.96517 8.41341 8.63021 8.50684 8.375 8.62988C8.09701 8.76204 7.88281 8.91699 7.73242 9.09473C7.58203 9.27246 7.50684 9.5026 7.50684 9.78516C7.50684 10.5872 7.95573 10.9883 8.85352 10.9883ZM20.5977 4.20703L17.6035 12.1094H16.3389L13.249 4.20703H14.8691L16.4141 8.64355L16.9883 10.5029L17.5146 8.64355L18.998 4.20703H20.5977ZM24.5898 4.09082C25.1914 4.09082 25.6927 4.15918 26.0938 4.2959C26.4948 4.43262 26.807 4.68327 27.0303 5.04785C27.2536 5.40788 27.3652 5.91602 27.3652 6.57227V12.1094H26.75C26.5449 12.1094 26.39 12.0957 26.2852 12.0684C26.1803 12.041 26.0983 11.9772 26.0391 11.877C25.9798 11.7767 25.9502 11.6172 25.9502 11.3984V11.3438C25.7223 11.5534 25.4079 11.7334 25.0068 11.8838C24.6104 12.0342 24.1956 12.1094 23.7627 12.1094C23.3024 12.1094 22.89 12.0205 22.5254 11.8428C22.1654 11.665 21.8828 11.4121 21.6777 11.084C21.4772 10.7513 21.377 10.3617 21.377 9.91504C21.377 9.42285 21.5091 8.99674 21.7734 8.63672C22.0423 8.27669 22.416 7.9987 22.8945 7.80273C23.3184 7.63411 23.7969 7.50879 24.3301 7.42676C24.8678 7.34017 25.3783 7.29688 25.8613 7.29688V6.51074C25.8613 6.14616 25.8021 5.87272 25.6836 5.69043C25.5697 5.50814 25.3965 5.38509 25.1641 5.32129C24.9316 5.25749 24.6104 5.22559 24.2002 5.22559C23.9814 5.22559 23.7285 5.25521 23.4414 5.31445C23.1589 5.3737 22.8923 5.44889 22.6416 5.54004C22.3955 5.62663 22.2132 5.71094 22.0947 5.79297L21.7256 4.80859C21.8441 4.73568 22.0583 4.64225 22.3682 4.52832C22.6826 4.41439 23.0381 4.31413 23.4346 4.22754C23.8356 4.13639 24.2207 4.09082 24.5898 4.09082ZM24.207 10.9883C24.4212 10.9883 24.6468 10.9564 24.8838 10.8926C25.1208 10.8288 25.3281 10.7536 25.5059 10.667C25.6882 10.5758 25.8066 10.4984 25.8613 10.4346V8.25391C25.5286 8.25391 25.1527 8.28581 24.7334 8.34961C24.3187 8.41341 23.9837 8.50684 23.7285 8.62988C23.4505 8.76204 23.2363 8.91699 23.0859 9.09473C22.9355 9.27246 22.8604 9.5026 22.8604 9.78516C22.8604 10.5872 23.3092 10.9883 24.207 10.9883ZM29.71 10.2637C29.988 10.4368 30.3548 10.5872 30.8105 10.7148C31.2663 10.8379 31.7174 10.8994 32.1641 10.8994C32.8385 10.8994 33.3512 10.7832 33.7021 10.5508C34.0576 10.3184 34.2354 9.95378 34.2354 9.45703C34.2354 9.12891 34.1488 8.84863 33.9756 8.61621C33.807 8.38379 33.5723 8.17643 33.2715 7.99414C32.9707 7.81185 32.5241 7.57715 31.9316 7.29004C31.1706 6.9209 30.5462 6.47884 30.0586 5.96387C29.571 5.44889 29.3271 4.84733 29.3271 4.15918C29.3271 3.53027 29.4912 3.01758 29.8193 2.62109C30.1475 2.22005 30.5713 1.93066 31.0908 1.75293C31.6104 1.5752 32.1755 1.48633 32.7861 1.48633C33.3558 1.48633 33.8457 1.54102 34.2559 1.65039C34.666 1.75521 34.9827 1.88053 35.2061 2.02637L34.8984 3.22949C34.6022 3.05176 34.2992 2.91732 33.9893 2.82617C33.6794 2.73047 33.2715 2.68262 32.7656 2.68262C32.4193 2.68262 32.0957 2.72819 31.7949 2.81934C31.4941 2.91048 31.2503 3.05176 31.0635 3.24316C30.8766 3.43457 30.7832 3.67155 30.7832 3.9541C30.7832 4.28678 30.8493 4.56478 30.9814 4.78809C31.1136 5.00684 31.3164 5.20964 31.5898 5.39648C31.8678 5.57878 32.2894 5.81576 32.8545 6.10742C33.4378 6.4082 33.9255 6.69303 34.3174 6.96191C34.7139 7.22624 35.0488 7.55208 35.3223 7.93945C35.5957 8.32682 35.7324 8.77344 35.7324 9.2793C35.7324 9.90365 35.5866 10.4277 35.2949 10.8516C35.0078 11.2754 34.6045 11.5921 34.085 11.8018C33.5654 12.0068 32.9593 12.1094 32.2666 12.1094C31.8382 12.1094 31.4235 12.0775 31.0225 12.0137C30.626 11.9499 30.2796 11.8724 29.9834 11.7812C29.6917 11.6901 29.4798 11.6012 29.3477 11.5146L29.71 10.2637ZM40.6406 4.09766C41.0827 4.09766 41.4746 4.14095 41.8164 4.22754C42.1582 4.30957 42.4043 4.40072 42.5547 4.50098L42.3154 5.69043C42.1058 5.5446 41.8597 5.4375 41.5771 5.36914C41.2946 5.29622 40.9574 5.25977 40.5654 5.25977C40.1735 5.25977 39.8066 5.36003 39.4648 5.56055C39.1276 5.76107 38.8542 6.07552 38.6445 6.50391C38.4349 6.92773 38.3301 7.46322 38.3301 8.11035C38.3301 8.71191 38.4258 9.22917 38.6172 9.66211C38.8086 10.0905 39.0706 10.4163 39.4033 10.6396C39.736 10.863 40.1097 10.9746 40.5244 10.9746C40.8844 10.9746 41.2354 10.929 41.5771 10.8379C41.9189 10.7422 42.1878 10.6351 42.3838 10.5166L42.6914 11.3711C42.4499 11.5944 42.1126 11.7744 41.6797 11.9111C41.2467 12.0433 40.7865 12.1094 40.2988 12.1094C39.5879 12.1094 38.9727 11.9408 38.4531 11.6035C37.9382 11.2617 37.5462 10.7946 37.2773 10.2021C37.0085 9.6097 36.874 8.9375 36.874 8.18555C36.874 7.40625 37.0153 6.70898 37.2979 6.09375C37.585 5.47396 38.0111 4.98633 38.5762 4.63086C39.1413 4.27539 39.8294 4.09766 40.6406 4.09766ZM47.6816 4.09082C48.0462 4.09082 48.2992 4.12272 48.4404 4.18652V5.59473C48.3447 5.54004 48.2194 5.49674 48.0645 5.46484C47.9141 5.42839 47.6976 5.41016 47.415 5.41016C47.0687 5.41016 46.7474 5.47396 46.4512 5.60156C46.1595 5.72461 45.9134 5.875 45.7129 6.05273V12H44.209V4.2207H45.4736L45.5762 5.08203C45.6764 4.94531 45.8382 4.79948 46.0615 4.64453C46.2894 4.48958 46.5469 4.3597 46.834 4.25488C47.1257 4.14551 47.4082 4.09082 47.6816 4.09082ZM51.4893 4.2207V12H49.9854V4.2207H51.4893ZM49.6982 1.86914C49.6982 1.67773 49.7507 1.5 49.8555 1.33594C49.9648 1.17188 50.1061 1.04199 50.2793 0.946289C50.4525 0.850586 50.6279 0.802734 50.8057 0.802734C51.1156 0.802734 51.3525 0.889323 51.5166 1.0625C51.6852 1.23568 51.7695 1.45671 51.7695 1.72559C51.7695 1.92611 51.7171 2.1084 51.6123 2.27246C51.5075 2.43652 51.3708 2.56413 51.2021 2.65527C51.0335 2.74642 50.8535 2.79199 50.6621 2.79199C50.4889 2.79199 50.3294 2.75553 50.1836 2.68262C50.0378 2.60514 49.9193 2.49577 49.8281 2.35449C49.7415 2.21322 49.6982 2.05143 49.6982 1.86914ZM57.5322 4.09766C58.0973 4.09766 58.6123 4.23665 59.0771 4.51465C59.542 4.78809 59.9134 5.20508 60.1914 5.76562C60.4694 6.32161 60.6084 7.00521 60.6084 7.81641C60.6084 8.65039 60.4466 9.39323 60.123 10.0449C59.7995 10.6966 59.3415 11.2048 58.749 11.5693C58.1611 11.9294 57.4798 12.1094 56.7051 12.1094C56.2402 12.1094 55.8141 12.0433 55.4268 11.9111L55.4473 12.9502V15.459H53.9434V4.20703H55.3037V5.04785C55.5589 4.77897 55.8551 4.55339 56.1924 4.37109C56.5296 4.1888 56.9762 4.09766 57.5322 4.09766ZM59.0771 7.94629C59.0771 7.0485 58.9085 6.38086 58.5713 5.94336C58.2386 5.5013 57.7533 5.28027 57.1152 5.28027C56.7826 5.28027 56.4749 5.34408 56.1924 5.47168C55.9144 5.59473 55.666 5.74284 55.4473 5.91602V10.667C55.5885 10.79 55.7708 10.8789 55.9941 10.9336C56.222 10.9883 56.5068 11.0156 56.8486 11.0156C57.277 11.0156 57.6598 10.8971 57.9971 10.6602C58.3343 10.4232 58.5986 10.0745 58.79 9.61426C58.9814 9.15397 59.0771 8.59798 59.0771 7.94629ZM62.8301 5.3418H61.8184V4.52832L62.0645 4.45996C62.2741 4.40072 62.429 4.35286 62.5293 4.31641C62.6296 4.27539 62.7161 4.2207 62.7891 4.15234C62.8665 4.07943 62.9281 3.98145 62.9736 3.8584C63.042 3.68522 63.1423 3.37305 63.2744 2.92188L63.4248 2.42969H64.3271V4.20703H66.5283V5.3418H64.3271V9.28613C64.3271 9.80566 64.3477 10.1748 64.3887 10.3936C64.4297 10.6077 64.5049 10.7467 64.6143 10.8105C64.7282 10.8743 64.9196 10.9062 65.1885 10.9062C65.3844 10.9062 65.6214 10.8743 65.8994 10.8105C66.182 10.7467 66.3893 10.6807 66.5215 10.6123L66.7812 11.4736C66.5579 11.6377 66.2367 11.7858 65.8174 11.918C65.4027 12.0456 65.0062 12.1094 64.6279 12.1094C64.0583 12.1094 63.6162 11.9681 63.3018 11.6855C62.9873 11.3984 62.8301 10.8812 62.8301 10.1338V5.3418Z" fill="#837E9F"/>
</svg>
